<svg width="1600" height="900" viewBox="0 0 1600 900" fill="none" xmlns="http://www.w3.org/2000/svg">
  <!-- Background gradient -->
  <rect width="1600" height="900" fill="#FFFBEB"/>
  <rect width="1600" height="900" fill="url(#bg-gradient)"/>
  <defs>
    <linearGradient id="bg-gradient" x1="0" y1="0" x2="1600" y2="900">
      <stop offset="0%" stop-color="#FFFBEB"/>
      <stop offset="100%" stop-color="#FFF7ED"/>
    </linearGradient>
  </defs>

  <!-- Logo (scaled up) -->
  <g transform="translate(160, 270) scale(6)">
    <!-- Bookshelf base -->
    <rect x="6" y="52" width="52" height="4" rx="1" fill="#b45309"/>
    <!-- Book 1 -->
    <rect x="12" y="14" width="8" height="38" rx="1.5" fill="#3b82f6" transform="rotate(-4 12 14)"/>
    <!-- Book 2 -->
    <rect x="22" y="20" width="8" height="32" rx="1.5" fill="#f59e0b"/>
    <!-- Book 3 -->
    <rect x="32" y="26" width="8" height="26" rx="1.5" fill="#10b981"/>
    <!-- Book 4 -->
    <rect x="42" y="16" width="8" height="36" rx="1.5" fill="#fb7185" transform="rotate(3 42 16)"/>
    <!-- Checkmark circle -->
    <circle cx="50" cy="14" r="12" fill="#22c55e"/>
    <path d="M44 14l4 4 8-8" stroke="white" stroke-width="2.5" stroke-linecap="round" stroke-linejoin="round" fill="none"/>
  </g>

  <!-- Title -->
  <text x="620" y="380" font-family="system-ui, -apple-system, sans-serif" font-size="110" font-weight="700" fill="#111827">ShelfCheck</text>

  <!-- Description -->
  <text x="620" y="465" font-family="system-ui, -apple-system, sans-serif" font-size="36" fill="#4B5563">Your reading list + your local library.</text>
  <text x="620" y="520" font-family="system-ui, -apple-system, sans-serif" font-size="36" fill="#4B5563">See what's available to borrow for free via Libby.</text>

  <!-- CTA button -->
  <rect x="620" y="580" width="320" height="72" rx="12" fill="#D97706"/>
  <text x="780" y="628" font-family="system-ui, -apple-system, sans-serif" font-size="30" font-weight="600" fill="white" text-anchor="middle">Check Your Shelf</text>

  <!-- URL -->
  <text x="620" y="730" font-family="system-ui, -apple-system, sans-serif" font-size="30" fill="#92400E">shelfcheck.org</text>
</svg>
